<?xml version="1.0" encoding="UTF-8"?>
<svg xmlns="http://www.w3.org/2000/svg" xmlns:xlink="http://www.w3.org/1999/xlink" width="2501" height="3751" viewBox="0 0 2501 3751">
<path fill-rule="evenodd" fill="rgb(83.59375%, 88.28125%, 92.96875%)" fill-opacity="1" d="M 0.839844 0.441406 L 2500.839844 0.441406 L 2500.839844 3750.226562 L 0.839844 3750.226562 L 0.839844 0.441406 "/>
<path fill-rule="evenodd" fill="rgb(79.296875%, 85.546875%, 91.014099%)" fill-opacity="1" d="M 0.839844 123.371094 L 0.839844 1536.78125 L 2500.839844 1536.78125 L 2500.839844 323.730469 C 2262.96875 270.828125 2024.429688 152.890625 1803.390625 131.628906 C 1518.738281 104.25 1263.101562 237.21875 931.957031 228.699219 C 655.980469 221.609375 327.558594 116.269531 0.839844 123.371094 "/>
<path fill-rule="evenodd" fill="rgb(74.021912%, 82.03125%, 88.28125%)" fill-opacity="1" d="M 0.839844 453.960938 L 0.839844 1315.75 L 2500.839844 1315.75 L 2500.839844 497.769531 C 2492.660156 497.421875 2484.589844 496.839844 2476.628906 495.960938 C 2353.570312 482.410156 2258.738281 400.949219 2111.191406 431.121094 C 1963.640625 461.289062 1763.359375 603.089844 1556.441406 601.039062 C 1349.519531 598.988281 1135.941406 453.078125 942.128906 431.800781 C 748.308594 410.519531 574.246094 513.859375 348.777344 507.238281 C 242.0625 504.109375 123.832031 476.351562 0.839844 453.960938 "/>
<path fill-rule="evenodd" fill="rgb(68.164062%, 78.125%, 85.546875%)" fill-opacity="1" d="M 2500.839844 1091.289062 L 2500.839844 2504.691406 L 0.839844 2504.691406 L 0.839844 1291.640625 C 238.714844 1238.75 477.25 1120.808594 698.289062 1099.550781 C 982.941406 1072.171875 1238.578125 1205.128906 1569.71875 1196.621094 C 1845.699219 1189.519531 2174.121094 1084.179688 2500.839844 1091.289062 "/>
<path fill-rule="evenodd" fill="rgb(61.914062%, 74.021912%, 82.421875%)" fill-opacity="1" d="M 2500.839844 1421.871094 L 2500.839844 2283.671875 L 0.839844 2283.671875 L 0.839844 1465.679688 C 9.015625 1465.339844 17.089844 1464.75 25.046875 1463.878906 C 148.105469 1450.320312 242.9375 1368.871094 390.488281 1399.039062 C 538.042969 1429.210938 738.316406 1571.011719 945.238281 1568.960938 C 1152.160156 1566.898438 1365.738281 1421 1559.550781 1399.71875 C 1753.371094 1378.441406 1927.429688 1481.78125 2152.898438 1475.160156 C 2259.621094 1472.03125 2377.851562 1444.269531 2500.839844 1421.871094 "/>
<path fill-rule="evenodd" fill="rgb(44.309998%, 59.568787%, 71.679688%)" fill-opacity="1" d="M 2500.839844 1709.289062 L 2500.839844 3750.226562 L 0.839844 3750.226562 L 0.839844 1768.03125 C 128.039062 1722.128906 252.992188 1679.238281 372.832031 1666.808594 C 659.367188 1637.078125 916.699219 1781.441406 1250.03125 1772.199219 C 1583.371094 1762.949219 1992.710938 1600.109375 2383.890625 1678.898438 C 2423.050781 1686.789062 2462.03125 1697.128906 2500.839844 1709.289062 "/>
<path fill-rule="evenodd" fill="rgb(36.863708%, 54.881287%, 67.771912%)" fill-opacity="1" d="M 0.839844 2026.078125 L 0.839844 3750.222656 L 2500.839844 3750.222656 L 2500.839844 2270.488281 C 2262.96875 2205.96875 2024.429688 2062.101562 1803.390625 2036.160156 C 1518.738281 2002.761719 1263.101562 2164.960938 931.957031 2154.570312 C 655.980469 2145.921875 327.558594 2017.421875 0.839844 2026.078125 "/>
<path fill-rule="evenodd" fill="rgb(18.431091%, 37.255859%, 54.101562%)" fill-opacity="1" d="M 2500.839844 2472.550781 L 2500.839844 3750.222656 L 0.839844 3750.222656 L 0.839844 2649.929688 C 62.738281 2663.128906 125.394531 2670.640625 188.394531 2669.960938 C 557.183594 2665.960938 937.824219 2381.53125 1283.261719 2340.039062 C 1628.691406 2298.558594 1938.921875 2500.011719 2340.769531 2487.109375 C 2392.671875 2485.449219 2446.121094 2480.179688 2500.839844 2472.550781 "/>
<path fill-rule="evenodd" fill="rgb(9.008789%, 28.637695%, 47.068787%)" fill-opacity="1" d="M 2500.839844 2718.25 L 2500.839844 3750.222656 L 0.839844 3750.222656 L 0.839844 2578.609375 C 38.371094 2571.609375 78.253906 2573.429688 121.878906 2589.679688 C 303.984375 2657.53125 551.160156 2976.398438 806.539062 2971.785156 C 1061.921875 2967.171875 1325.511719 2639.070312 1564.710938 2591.21875 C 1803.921875 2543.359375 2018.738281 2775.746094 2297.019531 2760.867188 C 2361.839844 2757.398438 2430.121094 2740.511719 2500.839844 2718.25 "/>
<path fill-rule="evenodd" fill="rgb(0%, 19.993591%, 39.988708%)" fill-opacity="1" d="M 2500.839844 3158.132812 L 2500.839844 3750.222656 L 0.839844 3750.222656 L 0.839844 3149.324219 C 97.273438 3175.515625 205.019531 3250.640625 295.914062 3226.003906 C 408.359375 3195.523438 495.007812 3012.347656 629.835938 3080.195312 C 764.660156 3148.042969 947.65625 3466.910156 1136.730469 3462.296875 C 1325.808594 3457.683594 1520.960938 3129.585938 1698.058594 3081.726562 C 1875.148438 3033.871094 2034.199219 3266.257812 2240.230469 3251.378906 C 2321.039062 3245.539062 2409.078125 3201.660156 2500.839844 3158.132812 "/>
</svg>
